<mxfile host="app.diagrams.net" agent="Mozilla/5.0 (Macintosh; Intel Mac OS X 10_15_7) AppleWebKit/537.36 (KHTML, like Gecko) Chrome/128.0.0.0 Safari/537.36" version="24.7.16">
  <diagram name="Page-1" id="r0Jr2GO2pQrT_eDpwpub">
    <mxGraphModel dx="823" dy="418" grid="1" gridSize="10" guides="1" tooltips="1" connect="1" arrows="1" fold="1" page="1" pageScale="1" pageWidth="850" pageHeight="1100" math="0" shadow="0">
      <root>
        <mxCell id="0" />
        <mxCell id="1" parent="0" />
        <mxCell id="x3obQRWJ_elbtLBWfNSW-23" style="edgeStyle=orthogonalEdgeStyle;rounded=0;orthogonalLoop=1;jettySize=auto;html=1;exitX=1;exitY=0.25;exitDx=0;exitDy=0;entryX=0;entryY=0.25;entryDx=0;entryDy=0;" edge="1" parent="1" source="x3obQRWJ_elbtLBWfNSW-3" target="x3obQRWJ_elbtLBWfNSW-5">
          <mxGeometry relative="1" as="geometry" />
        </mxCell>
        <mxCell id="x3obQRWJ_elbtLBWfNSW-3" value="User goes to the web scraper application and inserts the URL they wanted more information about" style="rounded=0;whiteSpace=wrap;html=1;" vertex="1" parent="1">
          <mxGeometry x="50" y="200" width="110" height="120" as="geometry" />
        </mxCell>
        <mxCell id="x3obQRWJ_elbtLBWfNSW-24" style="edgeStyle=orthogonalEdgeStyle;rounded=0;orthogonalLoop=1;jettySize=auto;html=1;exitX=0;exitY=0.75;exitDx=0;exitDy=0;entryX=1;entryY=0.75;entryDx=0;entryDy=0;" edge="1" parent="1" source="x3obQRWJ_elbtLBWfNSW-5" target="x3obQRWJ_elbtLBWfNSW-3">
          <mxGeometry relative="1" as="geometry" />
        </mxCell>
        <mxCell id="x3obQRWJ_elbtLBWfNSW-5" value="Web scraper sends the URL to cloud services and returns with specific data on the product depending on who is using it." style="rounded=0;whiteSpace=wrap;html=1;" vertex="1" parent="1">
          <mxGeometry x="240" y="200" width="110" height="120" as="geometry" />
        </mxCell>
        <mxCell id="x3obQRWJ_elbtLBWfNSW-29" style="edgeStyle=orthogonalEdgeStyle;rounded=0;orthogonalLoop=1;jettySize=auto;html=1;entryX=0.5;entryY=1;entryDx=0;entryDy=0;" edge="1" parent="1" source="x3obQRWJ_elbtLBWfNSW-8" target="x3obQRWJ_elbtLBWfNSW-9">
          <mxGeometry relative="1" as="geometry" />
        </mxCell>
        <mxCell id="x3obQRWJ_elbtLBWfNSW-30" style="edgeStyle=orthogonalEdgeStyle;rounded=0;orthogonalLoop=1;jettySize=auto;html=1;" edge="1" parent="1" source="x3obQRWJ_elbtLBWfNSW-8" target="x3obQRWJ_elbtLBWfNSW-10">
          <mxGeometry relative="1" as="geometry" />
        </mxCell>
        <mxCell id="x3obQRWJ_elbtLBWfNSW-8" value="Cloud Service" style="ellipse;shape=cloud;whiteSpace=wrap;html=1;" vertex="1" parent="1">
          <mxGeometry x="400" y="220" width="120" height="80" as="geometry" />
        </mxCell>
        <mxCell id="x3obQRWJ_elbtLBWfNSW-12" style="edgeStyle=orthogonalEdgeStyle;rounded=0;orthogonalLoop=1;jettySize=auto;html=1;entryX=0.5;entryY=0;entryDx=0;entryDy=0;" edge="1" parent="1" source="x3obQRWJ_elbtLBWfNSW-9" target="x3obQRWJ_elbtLBWfNSW-5">
          <mxGeometry relative="1" as="geometry" />
        </mxCell>
        <mxCell id="x3obQRWJ_elbtLBWfNSW-9" value="E.g. Amazon Quicksite Cloud Service" style="rounded=0;whiteSpace=wrap;html=1;" vertex="1" parent="1">
          <mxGeometry x="550" y="160" width="110" height="40" as="geometry" />
        </mxCell>
        <mxCell id="x3obQRWJ_elbtLBWfNSW-19" style="edgeStyle=orthogonalEdgeStyle;rounded=0;orthogonalLoop=1;jettySize=auto;html=1;entryX=0.5;entryY=1;entryDx=0;entryDy=0;" edge="1" parent="1" source="x3obQRWJ_elbtLBWfNSW-10" target="x3obQRWJ_elbtLBWfNSW-5">
          <mxGeometry relative="1" as="geometry">
            <Array as="points">
              <mxPoint x="295" y="340" />
            </Array>
          </mxGeometry>
        </mxCell>
        <mxCell id="x3obQRWJ_elbtLBWfNSW-10" value="E.g. Hey Marvin AI for Data Analysis&amp;nbsp;" style="rounded=0;whiteSpace=wrap;html=1;" vertex="1" parent="1">
          <mxGeometry x="550" y="320" width="110" height="40" as="geometry" />
        </mxCell>
        <mxCell id="x3obQRWJ_elbtLBWfNSW-15" style="edgeStyle=orthogonalEdgeStyle;rounded=0;orthogonalLoop=1;jettySize=auto;html=1;" edge="1" parent="1" source="x3obQRWJ_elbtLBWfNSW-5" target="x3obQRWJ_elbtLBWfNSW-8">
          <mxGeometry relative="1" as="geometry">
            <mxPoint x="390" y="260" as="targetPoint" />
          </mxGeometry>
        </mxCell>
        <mxCell id="x3obQRWJ_elbtLBWfNSW-21" value="For developers&amp;nbsp;" style="text;html=1;align=center;verticalAlign=middle;resizable=0;points=[];autosize=1;strokeColor=none;fillColor=none;" vertex="1" parent="1">
          <mxGeometry x="380" y="318" width="110" height="30" as="geometry" />
        </mxCell>
        <mxCell id="x3obQRWJ_elbtLBWfNSW-22" value="For consumers" style="text;html=1;align=center;verticalAlign=middle;resizable=0;points=[];autosize=1;strokeColor=none;fillColor=none;" vertex="1" parent="1">
          <mxGeometry x="385" y="158" width="100" height="30" as="geometry" />
        </mxCell>
        <mxCell id="x3obQRWJ_elbtLBWfNSW-25" value="Data" style="text;html=1;align=center;verticalAlign=middle;resizable=0;points=[];autosize=1;strokeColor=none;fillColor=none;" vertex="1" parent="1">
          <mxGeometry x="175" y="270" width="50" height="30" as="geometry" />
        </mxCell>
        <mxCell id="x3obQRWJ_elbtLBWfNSW-26" value="URL" style="text;html=1;align=center;verticalAlign=middle;resizable=0;points=[];autosize=1;strokeColor=none;fillColor=none;" vertex="1" parent="1">
          <mxGeometry x="175" y="208" width="50" height="30" as="geometry" />
        </mxCell>
      </root>
    </mxGraphModel>
  </diagram>
</mxfile>
